# xmcd CD database file
#
# Track frame offsets:
#	183
#	16758
#	29508
#	49308
#	68208
#	83058
#	100833
#	116633
#	131833
#	147183
#	166833
#
# Disc length: 2450 seconds
#
# Revision: 0
# Processed by: cddbd v1.4PL0 Copyright (c) Steve Scherf et al.
# Submitted via: CDex 1.40Release
#
DISCID=9109900b
DTITLE=Greg "Fingers" Taylor - Harpoon Man
DYEAR=1995
DGENRE=Blues
TTITLE0=Harpoon Man
TTITLE1=Let It Rock
TTITLE2=Messin' With The Kid
TTITLE3=Too Late
TTITLE4=Dixie Diner
TTITLE5=Can't Get No Grindin'
TTITLE6=Bad Boy
TTITLE7=Soul Survivor
TTITLE8=Cut That Out
TTITLE9=Judgement Day
TTITLE10=Last Night
EXTD=YEAR: 1995 ID3G: 0
EXTT0=
EXTT1=
EXTT2=
EXTT3=
EXTT4=
EXTT5=
EXTT6=
EXTT7=
EXTT8=
EXTT9=
EXTT10=
PLAYORDER=
